<?xml version="1.0" encoding="UTF-8"?>
<svg width="96px" height="64px" viewBox="0 0 433 157" version="1.1" xmlns="http://www.w3.org/2000/svg" xmlns:xlink="http://www.w3.org/1999/xlink">
    <title>ava</title>
    <g id="Page-1" stroke="none" stroke-width="1" fill="none" fill-rule="evenodd">
        <g id="ava" transform="translate(0.275441, 0.632792)" fill-rule="nonzero">
            <g id="#527294ff" transform="translate(-0.000000, 0.000000)" fill="#527294">
                <path d="M69.084559,0.957208013 C76.064559,-1.77279199 84.534559,1.53720801 87.714559,8.33720801 C101.384559,37.077208 114.884559,65.897208 128.564559,94.637208 C130.854559,99.107208 132.184559,104.657208 129.584559,109.307208 C126.974559,114.977208 120.724559,117.947208 114.684559,117.837208 C91.344559,117.887208 68.014559,117.867208 44.684559,117.837208 C43.604559,118.007208 41.884559,117.477208 41.404559,118.847208 C36.604559,128.487208 32.184559,138.317208 27.314559,147.927208 C24.074559,154.147208 16.034559,156.707208 9.54455904,154.607208 C2.81455904,152.167208 -1.14544096,144.447208 0.294559044,137.517208 C0.814559044,134.847208 2.15455904,132.447208 3.29455904,130.007208 C22.684559,89.357208 42.034559,48.697208 61.414559,8.03720801 C62.904559,4.78720801 65.834559,2.33720801 69.084559,0.957208013 M64.774559,69.417208 C61.294559,77.127208 57.284559,84.607208 54.134559,92.477208 C67.804559,92.537208 81.474559,92.547208 95.144559,92.467208 C88.584559,77.877208 81.464559,63.537208 74.584559,49.097208 C70.984559,55.707208 68.104559,62.667208 64.774559,69.417208 Z" id="Shape"></path>
                <path d="M148.624559,10.287208 C150.874559,2.37720801 160.514559,-2.01279199 168.044559,1.08720801 C171.534559,2.70720801 174.504559,5.53720801 176.124559,9.05720801 C190.094559,40.797208 203.614559,72.747208 217.724559,104.427208 C225.164559,88.607208 231.704559,72.347208 238.784559,56.357208 C240.714559,52.387208 241.744559,47.747208 245.134559,44.687208 C250.874559,38.717208 261.804559,39.747208 266.664559,46.357208 C270.244559,50.947208 270.524559,57.497208 268.054559,62.667208 C255.714559,90.687208 243.434559,118.727208 231.084559,146.737208 C228.364559,153.147208 220.594559,157.197208 213.844559,155.117208 C209.654559,153.877208 206.004559,150.757208 204.264559,146.737208 C186.624559,106.397208 169.014559,66.037208 151.374559,25.697208 C149.184559,20.937208 146.594559,15.567208 148.624559,10.287208 Z" id="Path"></path>
                <path d="M345.064559,7.64720801 C348.564559,0.507208013 358.334559,-2.07279199 365.124559,1.86720801 C367.994559,3.64720801 370.344559,6.25720801 371.694559,9.37720801 C385.364559,38.417208 399.164559,67.397208 412.814559,96.447208 C415.134559,101.187208 415.094559,107.147208 411.764559,111.407208 C408.714559,116.027208 403.004559,117.887208 397.684559,117.847208 C373.574559,117.897208 349.464559,117.817208 325.354559,117.887208 C320.394559,127.747208 315.854559,137.807208 310.904559,147.677208 C307.054559,155.447208 295.524559,157.927208 288.924559,152.237208 C283.594559,147.907208 281.944559,139.847208 284.994559,133.727208 C304.994559,91.687208 325.024559,49.667208 345.064559,7.64720801 M337.644559,92.477208 C351.264559,92.537208 364.894559,92.547208 378.514559,92.477208 C372.074559,77.827208 364.934559,63.487208 357.974559,49.077208 C351.054559,63.467208 343.944559,77.807208 337.644559,92.477208 Z" id="Shape"></path>
            </g>
            <g id="#afd5d7ff" transform="translate(119.528536, 0.098879)" fill="#AFD5D7">
                <path d="M148.526023,0.818329133 C156.246023,-2.06167087 165.776023,2.96832913 167.506023,11.0783291 C169.776023,19.2283291 163.776023,28.5883291 155.246023,29.3883291 C147.436023,30.5783291 139.546023,24.3983291 138.776023,16.5683291 C137.816023,9.86832913 142.126023,2.95832913 148.526023,0.818329133 Z" id="Path"></path>
                <path d="M9.5160231,126.788329 C17.4860231,123.488329 27.4460231,128.798329 29.1260231,137.248329 C31.4160231,145.568329 24.7460231,154.698329 16.2060231,155.268329 C8.5060231,156.208329 0.766023101,150.048329 0.116023101,142.288329 C-0.753976899,135.758329 3.3560231,129.058329 9.5160231,126.788329 Z" id="Path"></path>
                <path d="M293.486023,126.598329 C301.536023,123.628329 311.196023,129.198329 312.666023,137.648329 C314.716023,146.018329 307.816023,154.968329 299.256023,155.298329 C291.306023,156.058329 283.526023,149.258329 283.496023,141.228329 C283.076023,134.838329 287.426023,128.578329 293.486023,126.598329 Z" id="Path"></path>
            </g>
        </g>
    </g>
</svg>